<?xml version="1.0" encoding="utf-8"?>
<!-- Generator: Adobe Illustrator 16.0.0, SVG Export Plug-In . SVG Version: 6.00 Build 0)  -->
<!DOCTYPE svg PUBLIC "-//W3C//DTD SVG 1.1//EN" "http://www.w3.org/Graphics/SVG/1.1/DTD/svg11.dtd">
<svg version="1.1" id="Layer_1" xmlns="http://www.w3.org/2000/svg" xmlns:xlink="http://www.w3.org/1999/xlink" x="0px" y="0px"
	 width="150px" height="135.2px" viewBox="0 0 150 135.2" style="enable-background:new 0 0 150 135.2;" xml:space="preserve">
<path style="fill-rule:evenodd;clip-rule:evenodd;fill:#00AF41;" d="M100.8,20H47.5L20.9,66.2l26.6,46.1h53.3l26.6-46.1L100.8,20z
	 M74.1,84.9c-10.3,0-18.7-8.4-18.7-18.7c0-10.3,8.4-18.7,18.7-18.7c10.3,0,18.7,8.4,18.7,18.7C92.8,76.5,84.4,84.9,74.1,84.9z"/>
<g>
	<polygon style="fill:#646569;" points="47.2,120.4 52.1,120.4 52.1,129.2 55.6,129.2 55.6,120.4 60.5,120.4 60.5,117.5 47.2,117.5 
			"/>
	<polygon style="fill:#646569;" points="66.1,124.5 71,124.5 71,121.7 66.1,121.7 66.1,120.3 74.5,120.3 74.5,117.5 62.5,117.5 
		62.5,129.2 74.6,129.2 74.6,126.2 66.1,126.2 	"/>
	<path style="fill:#646569;" d="M87.5,117.5h-6.4c-1.2,0-2,0.2-2.4,0.7c-0.5,0.5-0.7,1.2-0.7,2.4v5.6c0,1.2,0.2,1.9,0.7,2.4
		c0.5,0.4,1.3,0.7,2.4,0.7h6.4c1.2,0,2-0.2,2.4-0.7c0.5-0.5,0.7-1.2,0.7-2.4v-1.7l-3.5-0.7v2.4h-5.7v-5.7h5.7v2.1l3.5-0.6v-1.5
		c0-1.2-0.2-1.9-0.7-2.4C89.4,117.7,88.6,117.5,87.5,117.5z"/>
	<path style="fill:#646569;" d="M104.4,121.6l2.8-0.7v-0.6c0-1.1-0.3-1.8-0.8-2.2c-0.5-0.4-1.3-0.6-2.4-0.6H98c-1.2,0-2,0.2-2.4,0.7
		c-0.5,0.5-0.7,1.2-0.7,2.4v1.2c0,1.2,0.2,1.9,0.7,2.4c0.5,0.4,1.3,0.7,2.4,0.7h6.1v1.4h-6.5v-1.4l-3.2,0.7v0.7
		c0,1.2,0.2,1.9,0.7,2.4c0.5,0.4,1.3,0.7,2.4,0.7h6.6c1.2,0,2-0.2,2.4-0.7c0.5-0.5,0.7-1.2,0.7-2.4v-1.5c0-1.2-0.2-1.9-0.7-2.4
		C106.1,121.9,105.4,121.7,104.4,121.6z M98,121.6v-1.3h6v1.3H98z"/>
	<polygon style="fill:#646569;" points="115,124.5 119.9,124.5 119.9,121.7 115,121.7 115,120.3 123.4,120.3 123.4,117.5 
		111.5,117.5 111.5,129.2 123.5,129.2 123.5,126.2 115,126.2 	"/>
	<path style="fill:#646569;" d="M134.3,117.5h-3l-6.6,11.7h3.7l1.2-2.3h6.1l1.3,2.3h4L134.3,117.5z M134.1,123.9h-2.9l1.5-2.7
		L134.1,123.9z"/>
</g>
<g>
	<path style="fill:#646569;" d="M14.6,4.8l-6.8,12h3.7l1.3-2.4h6.3l1.3,2.4h4.1l-6.9-12H14.6z M17.6,11.3h-3l1.5-2.8L17.6,11.3z"/>
	<path style="fill:#646569;" d="M36.4,9l3-0.7V7.7c0-1.1-0.3-1.8-0.8-2.3c-0.5-0.4-1.3-0.6-2.4-0.6H30c-1.2,0-2,0.2-2.5,0.7
		c-0.5,0.5-0.7,1.3-0.7,2.4v1.2c0,1.2,0.2,2,0.7,2.4c0.5,0.4,1.3,0.7,2.5,0.7h6.3v1.5h-6.7v-1.4l-3.3,0.7v0.7c0,1.2,0.2,2,0.8,2.4
		c0.5,0.4,1.3,0.7,2.5,0.7h6.8c1.2,0,2-0.2,2.5-0.7c0.5-0.5,0.8-1.3,0.8-2.4v-1.5c0-1.2-0.2-2-0.8-2.4C38.3,9.3,37.5,9.1,36.4,9z
		 M30,9V7.7h6.1V9H30z"/>
	<polygon style="fill:#646569;" points="47.3,12 52.4,12 52.4,9.1 47.3,9.1 47.3,7.7 56,7.7 56,4.8 43.8,4.8 43.8,16.7 56.1,16.7 
		56.1,13.7 47.3,13.7 	"/>
	<polygon style="fill:#646569;" points="57.3,7.8 62.3,7.8 62.3,16.7 65.9,16.7 65.9,7.8 70.9,7.8 70.9,4.8 57.3,4.8 	"/>
	<polygon style="fill:#646569;" points="76.5,12 81.6,12 81.6,9.1 76.5,9.1 76.5,7.7 85.2,7.7 85.2,4.8 73,4.8 73,16.7 85.3,16.7 
		85.3,13.7 76.5,13.7 	"/>
	<path style="fill:#646569;" d="M101.7,9.4V7.9c0-1.2-0.2-2-0.7-2.4c-0.5-0.4-1.3-0.7-2.5-0.7h-6.5c-1.2,0-2,0.2-2.5,0.7
		c-0.5,0.5-0.7,1.3-0.7,2.4v5.8c0,1.2,0.2,2,0.7,2.4c0.5,0.4,1.3,0.7,2.5,0.7h6.5c1.2,0,2-0.2,2.5-0.7c0.5-0.5,0.7-1.3,0.7-2.4v-1.7
		l-3.6-0.7v2.5h-5.8V7.8h5.8v2.2L101.7,9.4z"/>
</g>
<path style="fill-rule:evenodd;clip-rule:evenodd;fill:#646569;" d="M115.4,56.9V45.4l-4.7-8.1v19.7h-3.6v0.3l-29.3-21L100.4,20h-8
	L73.8,33.3L55.3,20h-7.8l-0.1,0.1l22.4,16l-29,20.7h-3.2V37.3l-4.7,8.1v11.6h-3.6v18.4h3.6V87l4.7,8.1V75.3H41l29.6,21.1l-23,15.9
	h8.2l18.8-13l18.2,13h7.9l0-0.1L78.7,96.5l30.7-21.2h1.3v19.8l4.7-8.1V75.3h3.6V56.9H115.4z M107.1,63.8H92.6
	c0.1,0.8,0.2,1.6,0.2,2.4c0,0.8-0.1,1.5-0.1,2.3h14.5v2.8L74.7,93.6l-33.6-24v-1.2h14.5c-0.1-0.7-0.1-1.5-0.1-2.3
	c0-0.8,0.1-1.6,0.2-2.4H41.1v-1.4l32.7-23.3L107.1,63V63.8z"/>
</svg>
