<?xml version="1.0" encoding="utf-8"?>
<!-- Generator: Adobe Illustrator 16.0.0, SVG Export Plug-In . SVG Version: 6.00 Build 0)  -->
<!DOCTYPE svg PUBLIC "-//W3C//DTD SVG 1.1//EN" "http://www.w3.org/Graphics/SVG/1.1/DTD/svg11.dtd">
<svg version="1.1" id="Forma_1_1_" xmlns="http://www.w3.org/2000/svg" xmlns:xlink="http://www.w3.org/1999/xlink" x="0px" y="0px"
	 width="27px" height="28px" viewBox="0 0 27 28" style="enable-background:new 0 0 27 28;" xml:space="preserve">
<g id="Forma_1">
	<g>
		<path style="fill:#00B259;" d="M26.7,14.5l-1.2-1.8c-0.4-3.1-1.2-5.4-2.7-7c-1.7-1.9-4.1-2.8-7.4-2.8c-0.5,0-1,0-1.5,0.1
			C8.3,3.4,5.3,9.9,4.1,13.2c-0.1,0-0.1,0.1-0.2,0.1c-2.7,1.2-4.1,2.5-4,4.1c0,0.6,0.3,1.2,1.1,2c0.6,0.6,1.3,1.2,2.1,1.9
			c1,0.7,3.4,2.4,5.5,2.5c0.1,0,0.2,0,0.3,0c3.2,0,13.4-1.9,17.8-8C27,15.3,27,14.8,26.7,14.5z M21.2,15.7c-0.3,0.2-0.5,0.3-0.8,0.5
			c-0.6,0.3-1.2,0.7-1.8,0.9c-1.2,0.5-2.4,1-3.7,1.3c-1.2,0.3-2.4,0.4-3.6,0.2c-1.1-0.2-2.2-0.6-3.3-1.1c-1-0.5-2-1.2-2.8-2.1
			c0.5,0.2,0.9,0.4,1.4,0.6c0.3-1,0.6-2,1.1-3c0.4-1,0.9-1.9,1.6-2.7c0.8-0.9,1.8-1.7,2.9-2.3c0.9-0.5,1.8-0.9,2.9-1.1
			c-0.4,0.1-0.8,0.3-1.2,0.5c-1.1,0.6-2.1,1.5-3,2.4c-0.4,0.4-0.8,0.9-1,1.4c-0.3,0.6-0.5,1.1-0.6,1.7c-0.3,1.2-0.5,2.4-0.6,3.6
			c0,0.1,0,0.1,0.1,0.2c0.1,0,0.2,0,0.2,0.1c0.1,0,0.3,0.1,0.4,0.1c0.3,0.1,0.6,0.1,0.9,0.2c1.8,0.4,4.3-0.1,5.8-0.4
			c1.5-0.3,3.1-0.7,4.6-1.1c0,0,0,0,0,0c0.2-0.1,0.2,0,0.1,0c0.2,0,0.4-0.1,0.6-0.1C21.7,15.5,21.3,15.7,21.2,15.7z"/>
	</g>
</g>
</svg>
