<?xml version="1.0" encoding="utf-8"?>
<!-- Generator: Adobe Illustrator 16.0.0, SVG Export Plug-In . SVG Version: 6.00 Build 0)  -->
<!DOCTYPE svg PUBLIC "-//W3C//DTD SVG 1.1//EN" "http://www.w3.org/Graphics/SVG/1.1/DTD/svg11.dtd">
<svg version="1.1" id="Layer_1" xmlns="http://www.w3.org/2000/svg" xmlns:xlink="http://www.w3.org/1999/xlink" x="0px" y="0px"
	 width="40px" height="40px" viewBox="-4 -4 40 40" enable-background="new -4 -4 40 40" xml:space="preserve">
<path fill="#00B259" d="M31.771,3.391L17.965,15.51v15.703l7.684,3.719H7.642l7.685-3.719V15.51L1.354,3.391h21.312L26.932-4
	l1.146,0.662L24.194,3.39h7.577V3.391z M28.547,4.633l-5.082,0.02l-1.563,2.712h3.609L28.547,4.633L28.547,4.633z M17.965,12.661
	c0.777,0,1.405-0.63,1.405-1.407c0-0.777-0.629-1.408-1.405-1.408c-0.775,0-1.407,0.63-1.407,1.408
	C16.558,12.032,17.189,12.661,17.965,12.661z M4.58,4.633l3.061,2.731h12.731l1.562-2.705L4.58,4.633z"/>
</svg>
